<svg width="129" height="129" viewBox="0 0 129 129" fill="none" xmlns="http://www.w3.org/2000/svg">
    <g clip-path="url(#clip0_355_23704)">
        <path d="M49.7492 54.2734H49.3002V41.9734C49.3002 41.0385 49.1161 40.1128 48.7583 39.2491C48.4006 38.3854 47.8762 37.6006 47.2152 36.9396C46.5541 36.2785 45.7693 35.7541 44.9056 35.3964C44.0419 35.0386 43.1162 34.8545 42.1813 34.8545H16.1222C14.2341 34.8545 12.4234 35.6045 11.0883 36.9396C9.7533 38.2746 9.00327 40.0853 9.00327 41.9734V109.452C9.00326 110.387 9.1874 111.313 9.54516 112.176C9.90291 113.04 10.4273 113.825 11.0883 114.486C11.7494 115.147 12.5342 115.671 13.3979 116.029C14.2616 116.387 15.1873 116.571 16.1221 116.571H42.1813C44.0694 116.571 45.8801 115.821 47.2151 114.486C48.5502 113.151 49.3002 111.34 49.3002 109.452V63.0287H49.7492V54.2734Z" fill="#3F3D56"/>
        <path d="M42.4686 36.707H39.067C39.2234 37.0905 39.2831 37.5066 39.2409 37.9187C39.1986 38.3307 39.0557 38.726 38.8246 39.0698C38.5936 39.4136 38.2816 39.6952 37.916 39.89C37.5505 40.0848 37.1427 40.1867 36.7285 40.1867H21.7995C21.3853 40.1867 20.9775 40.0848 20.612 39.89C20.2464 39.6952 19.9344 39.4136 19.7034 39.0698C19.4723 38.726 19.3294 38.3307 19.2871 37.9187C19.2448 37.5067 19.3046 37.0905 19.461 36.707H16.2839C15.5858 36.707 14.8944 36.8445 14.2494 37.1117C13.6044 37.3789 13.0184 37.7705 12.5247 38.2641C12.031 38.7578 11.6394 39.3439 11.3723 39.9889C11.1051 40.6339 10.9676 41.3252 10.9676 42.0233V109.403C10.9676 110.101 11.1051 110.792 11.3723 111.437C11.6394 112.082 12.031 112.668 12.5247 113.162C13.0184 113.656 13.6044 114.047 14.2494 114.315C14.8944 114.582 15.5857 114.719 16.2839 114.719H42.4686C43.1667 114.719 43.858 114.582 44.503 114.315C45.148 114.047 45.7341 113.656 46.2278 113.162C46.7214 112.668 47.113 112.082 47.3802 111.437C47.6474 110.792 47.7849 110.101 47.7849 109.403V42.0233C47.7849 41.3252 47.6474 40.6339 47.3802 39.9889C47.113 39.3439 46.7214 38.7578 46.2278 38.2641C45.7341 37.7705 45.148 37.3789 44.503 37.1117C43.858 36.8445 43.1667 36.707 42.4686 36.707Z" fill="white"/>
        <path d="M58.1017 116.583H0.65079C0.610798 116.583 0.572444 116.567 0.544165 116.539C0.515887 116.51 0.5 116.472 0.5 116.432C0.5 116.392 0.515887 116.354 0.544165 116.325C0.572444 116.297 0.610798 116.281 0.65079 116.281H58.1017C58.1417 116.281 58.18 116.297 58.2083 116.325C58.2366 116.354 58.2525 116.392 58.2525 116.432C58.2525 116.472 58.2366 116.51 58.2083 116.539C58.18 116.567 58.1417 116.583 58.1017 116.583Z" fill="#CBCBCB"/>
        <path d="M29.3763 86.9799C36.4088 86.9799 42.1099 81.2789 42.1099 74.2463C42.1099 67.2137 36.4088 61.5127 29.3763 61.5127C22.3437 61.5127 16.6426 67.2137 16.6426 74.2463C16.6426 81.2789 22.3437 86.9799 29.3763 86.9799Z" fill="#32CCCC"/>
        <path d="M28.1144 79.1035C27.8279 79.104 27.5491 79.0113 27.3199 78.8394L27.3057 78.8288L24.3131 76.5395C24.1745 76.4333 24.0582 76.3008 23.9708 76.1496C23.8834 75.9984 23.8267 75.8314 23.8038 75.6583C23.7809 75.4851 23.7924 75.3092 23.8375 75.1405C23.8827 74.9718 23.9606 74.8136 24.0668 74.675C24.1731 74.5364 24.3056 74.4201 24.4568 74.3327C24.608 74.2453 24.7749 74.1886 24.9481 74.1657C25.1212 74.1428 25.2972 74.1543 25.4659 74.1994C25.6346 74.2446 25.7928 74.3225 25.9314 74.4287L27.8697 75.9151L32.4501 69.9395C32.5563 69.8009 32.6888 69.6847 32.8399 69.5973C32.9911 69.51 33.158 69.4533 33.331 69.4304C33.5041 69.4075 33.68 69.419 33.8486 69.4641C34.0172 69.5092 34.1753 69.5871 34.3139 69.6933L34.3143 69.6936L34.2858 69.7331L34.315 69.6936C34.5945 69.9084 34.7774 70.2253 34.8235 70.5748C34.8696 70.9243 34.7752 71.2778 34.5609 71.5577L29.1734 78.5833C29.0487 78.7452 28.8885 78.8761 28.705 78.9661C28.5216 79.056 28.3199 79.1025 28.1156 79.1019L28.1144 79.1035Z" fill="white"/>
        <path d="M110.108 117.835C110.263 117.584 110.445 117.352 110.652 117.142C110.737 117.053 110.827 116.97 110.919 116.889C111.482 116.388 112.169 116.046 112.908 115.898C113.647 115.75 114.412 115.802 115.125 116.048C115.837 116.293 116.471 116.724 116.962 117.297C117.453 117.869 117.782 118.561 117.916 119.303C118.538 117.003 116.919 114.738 115.292 112.998C113.663 111.258 111.802 109.35 111.811 106.966C111.816 105.64 112.465 104.457 113.444 103.58C113.474 103.553 113.505 103.526 113.535 103.501C114.719 102.486 116.243 101.955 117.801 102.014C120.696 102.169 123.224 104.115 124.979 106.423C127.805 110.137 129.043 115.349 127.065 119.577C125.325 123.294 121.614 125.502 117.827 127.277C117.298 127.525 116.77 127.766 116.243 127.998C116.24 127.999 116.236 128.002 116.233 128.003C116.207 128.014 116.182 128.025 116.158 128.037C116.05 128.085 115.941 128.133 115.833 128.18L115.883 128.213L116.039 128.313C115.985 128.281 115.931 128.249 115.877 128.216C115.861 128.206 115.844 128.197 115.828 128.187C113.968 127.071 112.082 125.89 110.797 124.148C109.464 122.339 108.928 119.747 110.108 117.835Z" fill="#CBCBCB"/>
        <path d="M122.519 113.634C122.931 114.571 123.204 115.563 123.329 116.579C123.428 117.484 123.391 118.4 123.219 119.295C122.85 121.133 122.044 122.857 120.87 124.319C119.984 125.43 118.962 126.424 117.827 127.278C117.298 127.526 116.77 127.766 116.243 127.999C116.24 128 116.236 128.002 116.233 128.003C116.207 128.015 116.182 128.026 116.158 128.037C116.049 128.085 115.941 128.133 115.833 128.18L115.883 128.213L116.039 128.314C115.985 128.281 115.931 128.249 115.877 128.217C115.861 128.207 115.844 128.198 115.828 128.188C116.238 126.756 116.298 125.247 116.004 123.787C115.71 122.327 115.07 120.959 114.138 119.797C113.202 118.65 112.007 117.74 110.652 117.142C110.737 117.054 110.827 116.971 110.919 116.89C111.441 117.13 111.941 117.415 112.413 117.743C114.1 118.909 115.366 120.587 116.025 122.529C116.614 124.29 116.687 126.183 116.237 127.985C116.331 127.924 116.424 127.862 116.515 127.799C118.248 126.631 119.845 125.227 121.048 123.506C122.086 122.052 122.75 120.364 122.982 118.593C123.212 116.658 122.728 114.755 121.864 113.028C120.91 111.181 119.708 109.472 118.291 107.951C116.868 106.387 115.259 105.004 113.499 103.831C113.46 103.804 113.432 103.763 113.422 103.717C113.411 103.67 113.419 103.621 113.444 103.58C113.463 103.543 113.496 103.515 113.536 103.501C113.556 103.496 113.577 103.496 113.597 103.5C113.617 103.504 113.637 103.513 113.653 103.525C113.87 103.67 114.086 103.816 114.298 103.967C116.07 105.221 117.679 106.691 119.088 108.342C120.45 109.934 121.689 111.702 122.519 113.634Z" fill="white"/>
        <path d="M84.594 40.7669C86.0875 40.7669 87.2983 39.5562 87.2983 38.0627C87.2983 36.5691 86.0875 35.3584 84.594 35.3584C83.1005 35.3584 81.8897 36.5691 81.8897 38.0627C81.8897 39.5562 83.1005 40.7669 84.594 40.7669Z" fill="#CBCBCB"/>
        <path d="M118.22 76.9567C119.131 76.9567 119.869 76.2185 119.869 75.3079C119.869 74.3973 119.131 73.6592 118.22 73.6592C117.31 73.6592 116.571 74.3973 116.571 75.3079C116.571 76.2185 117.31 76.9567 118.22 76.9567Z" fill="#CBCBCB"/>
        <path d="M69.9674 81.4801C70.878 81.4801 71.6162 80.7419 71.6162 79.8314C71.6162 78.9208 70.878 78.1826 69.9674 78.1826C69.0568 78.1826 68.3187 78.9208 68.3187 79.8314C68.3187 80.7419 69.0568 81.4801 69.9674 81.4801Z" fill="#CBCBCB"/>
        <path d="M70.8982 128.495H128.349C128.389 128.495 128.427 128.479 128.456 128.451C128.484 128.422 128.5 128.384 128.5 128.344C128.5 128.304 128.484 128.266 128.456 128.238C128.427 128.209 128.389 128.193 128.349 128.193H70.8982C70.8582 128.193 70.8199 128.209 70.7916 128.238C70.7633 128.266 70.7474 128.304 70.7474 128.344C70.7474 128.384 70.7633 128.422 70.7916 128.451C70.8199 128.479 70.8582 128.495 70.8982 128.495Z" fill="#CBCBCB"/>
        <path d="M122.009 49.4267C122.085 48.8911 121.961 48.3465 121.662 47.896C121.362 47.4454 120.908 47.1204 120.385 46.9823C119.862 46.8443 119.307 46.9029 118.824 47.147C118.341 47.3912 117.965 47.8039 117.766 48.3069L113.104 53.6516L114.472 57.4721L119.161 51.2271C119.467 51.3251 119.791 51.3548 120.109 51.3142C120.428 51.2735 120.734 51.1635 121.005 50.9919C121.277 50.8202 121.507 50.5911 121.681 50.3207C121.854 50.0503 121.966 49.7451 122.009 49.4267Z" fill="#FFB7B7"/>
        <path d="M102.685 70.2221L118.16 53.7063L116.073 50.3877L96.6624 66.8033L102.685 70.2221Z" fill="#3F3D56"/>
        <path d="M99.2306 60.1879C102.229 60.1879 104.659 57.7575 104.659 54.7595C104.659 51.7614 102.229 49.3311 99.2306 49.3311C96.2325 49.3311 93.8022 51.7614 93.8022 54.7595C93.8022 57.7575 96.2325 60.1879 99.2306 60.1879Z" fill="#2F2E41"/>
        <path d="M99.6669 51.6916C100.835 50.507 102.249 49.5929 103.808 49.0137C104.809 48.6428 105.899 48.4137 106.945 48.6243C107.992 48.8349 108.982 49.5589 109.273 50.5857C109.512 51.4254 109.266 52.3294 108.895 53.1198C108.525 53.9102 108.03 54.6432 107.73 55.4631C107.425 56.2997 107.333 57.1994 107.463 58.0805C107.593 58.9616 107.941 59.7963 108.476 60.5087C109.01 61.2212 109.715 61.7888 110.524 62.1601C111.334 62.5314 112.223 62.6947 113.112 62.635C112.084 62.7729 111.136 63.2561 110.131 63.5133C109.126 63.7705 107.939 63.7531 107.192 63.033C106.402 62.2712 106.386 61.0325 106.424 59.9354C106.481 58.3046 106.538 56.6738 106.595 55.0431C106.624 54.2114 106.649 53.3531 106.349 52.5768C106.049 51.8006 105.336 51.1208 104.504 51.1279C103.873 51.1332 103.315 51.5153 102.809 51.8921C102.303 52.2689 101.768 52.6709 101.14 52.7269C100.512 52.783 99.7943 52.3181 99.8413 51.6891L99.6669 51.6916Z" fill="#2F2E41"/>
        <path d="M78.613 91.2075C78.0918 91.3523 77.5357 91.3009 77.0499 91.063C76.5642 90.8252 76.1826 90.4174 75.9774 89.9169C75.7722 89.4165 75.7577 88.8581 75.9367 88.3477C76.1156 87.8373 76.4756 87.4103 76.9484 87.1475L81.638 81.8271L85.6046 82.6841L80.0257 88.1484C80.1629 88.4389 80.2346 88.756 80.236 89.0773C80.2374 89.3985 80.1683 89.7162 80.0336 90.0078C79.8989 90.2995 79.7019 90.5581 79.4564 90.7653C79.211 90.9726 78.9231 91.1236 78.613 91.2075Z" fill="#FFB7B7"/>
        <path d="M94.0419 72.1603L82.3534 86.8322L78.7906 85.1964L92.529 63.8076L94.0419 72.1603Z" fill="#3F3D56"/>
        <path d="M84.7155 116.463L81.9298 116.419L82.2649 125.914H84.715L84.7155 116.463Z" fill="#FFB7B7"/>
        <path d="M85.3401 125.114L80.5146 125.114H80.5144C79.6989 125.114 78.9167 125.438 78.34 126.015C77.7633 126.592 77.4393 127.374 77.4393 128.189V128.289L85.3399 128.29L85.3401 125.114Z" fill="#2F2E41"/>
        <path d="M103.16 113.945L100.117 115.899L106.204 123.222L108.266 121.898L103.16 113.945Z" fill="#FFB7B7"/>
        <path d="M108.359 120.888L104.299 123.495L104.299 123.495C103.612 123.935 103.129 124.631 102.956 125.427C102.782 126.224 102.932 127.058 103.372 127.744L103.426 127.828L110.075 123.56L108.359 120.888Z" fill="#2F2E41"/>
        <path d="M104.244 84.9529C104.244 84.9529 97.4825 62.4961 95.3096 62.1927C93.1366 61.8892 89.6356 67.9548 89.6356 67.9548C85.0964 73.7464 80.4157 92.5065 80.4157 92.5065C80.4157 92.5065 88.2186 92.9948 93.9225 96.0295C99.6264 99.0642 106.358 95.8759 106.358 95.8759L104.244 84.9529Z" fill="#3F3D56"/>
        <path opacity="0.1" d="M104.244 84.9527C104.244 84.9527 97.4825 62.496 95.3096 62.1926C93.1366 61.8891 90.5248 68.0162 90.5248 68.0162C88.263 77.3652 80.4157 92.5064 80.4157 92.5064C80.4157 92.5064 88.2186 92.9947 93.9225 96.0294C99.6264 99.0641 106.358 95.8758 106.358 95.8758L104.244 84.9527Z" fill="black"/>
        <path d="M98.6966 78.2344V89.5188L100.025 105.865L106.659 118.23L103.493 120.492L94.4454 108.73L90.867 97.0515L85.2472 122.904L81.0251 122.603L83.9574 86.7583L89.5217 76.6689L98.6966 78.2344Z" fill="#2F2E41"/>
        <path d="M91.8796 67.3192C89.7685 69.4303 91.7288 71.6921 91.7288 71.6921L89.3161 77.1206L98.8159 79.684L102.136 64.8496L99.8739 62.4369C95.3502 62.2861 95.3477 62.1924 95.3477 62.1924C94.5551 62.968 91.8796 67.3192 91.8796 67.3192Z" fill="#32CCCC"/>
        <path d="M102.518 63.3128C102.087 62.9943 101.596 62.7646 101.076 62.637C100.555 62.5094 100.014 62.4863 99.4838 62.5693C98.954 62.6522 98.4459 62.8394 97.989 63.1201C97.532 63.4008 97.1353 63.7694 96.8218 64.2045C94.4336 67.5297 92.2254 72.8992 95.2679 79.5958C100.153 90.3486 104.405 95.8532 106.133 95.8526C106.209 95.8532 106.284 95.8414 106.355 95.8177C107.419 95.4567 108.957 93.6565 109.236 92.0702C109.335 91.5023 109.312 90.7114 108.633 90.1683C106.682 88.6082 103.18 83.7505 102.088 77.3567C101.484 73.8237 102.655 70.6055 103.743 68.528C104.203 67.6683 104.338 66.6718 104.122 65.7211C103.907 64.7703 103.356 63.929 102.571 63.3515L102.518 63.3128Z" fill="#3F3D56"/>
        <path d="M99.5097 59.6534C101.446 58.5949 102.158 56.1669 101.099 54.2305C100.041 52.294 97.6128 51.5824 95.6763 52.6409C93.7399 53.6995 93.0282 56.1274 94.0867 58.0639C95.1453 60.0003 97.5732 60.712 99.5097 59.6534Z" fill="#FFB7B7"/>
        <path d="M91.9733 55.8469H97.7433L97.8025 55.0184L98.0983 55.8469H98.9868L99.1041 54.205L99.6904 55.8469H101.41V55.7655C101.408 54.6225 100.954 53.5266 100.145 52.7183C99.3371 51.91 98.2412 51.4554 97.0982 51.4541H96.2847C95.1416 51.4554 94.0457 51.91 93.2375 52.7183C92.4292 53.5266 91.9746 54.6224 91.9733 55.7655V55.8469Z" fill="#2F2E41"/>
        <path d="M100.538 58.8226L103 58.0236V52.0439H98.3493L98.4645 52.1589C100.067 53.7589 101.848 59.4356 100.538 58.8226Z" fill="#2F2E41"/>
    </g>
    <defs>
        <clipPath id="clip0_355_23704">
            <rect width="128" height="96" fill="white" transform="translate(0.5 32.7998)"/>
        </clipPath>
    </defs>
</svg>
