<svg width="129" height="129" viewBox="0 0 129 129" fill="none" xmlns="http://www.w3.org/2000/svg">
    <g clip-path="url(#clip0_355_23778)">
        <path d="M113.049 13.3687C112.229 12.79 111.332 12.1865 110.329 12.2107C107.901 12.269 106.592 15.8285 104.166 15.7033C102.619 15.6235 101.592 14.0521 100.152 13.4823C98.277 12.7406 95.8908 14.1913 95.6862 16.1973L95.927 15.9769C103.216 17.7539 110.78 18.1033 118.202 17.006C116.484 15.7935 114.766 14.5811 113.049 13.3687Z" fill="#CBCBCB"/>
        <path d="M4.86777 107.086C5.74312 100.047 10.1054 93.1119 16.8183 90.8213C14.1709 98.0662 14.1715 106.014 16.8199 113.259C17.8515 116.049 19.2893 119.045 18.319 121.857C17.7153 123.607 16.2385 124.945 14.5876 125.783C12.9367 126.62 11.1045 127.019 9.29523 127.41L8.93916 127.704C6.06699 121.219 3.99241 114.125 4.86777 107.086Z" fill="#CBCBCB"/>
        <path d="M16.885 90.9542C12.9757 95.3345 10.546 100.835 9.94089 106.675C9.81888 107.927 9.80406 109.207 10.0777 110.441C10.3537 111.642 10.9462 112.747 11.7936 113.641C12.567 114.491 13.4565 115.271 14.0099 116.294C14.5932 117.372 14.6156 118.597 14.2163 119.742C13.7277 121.143 12.7647 122.286 11.7843 123.37C10.6956 124.574 9.54578 125.807 9.08302 127.403C9.02695 127.596 8.73018 127.498 8.78617 127.305C9.59129 124.528 12.2867 122.951 13.5722 120.45C14.172 119.283 14.4237 117.928 13.8614 116.696C13.3697 115.619 12.4531 114.814 11.6626 113.961C10.8326 113.064 10.1961 112.081 9.86827 110.894C9.53289 109.68 9.49768 108.397 9.58715 107.147C9.81117 104.315 10.4791 101.536 11.5664 98.9117C12.7907 95.9095 14.5196 93.1389 16.6781 90.7198C16.8118 90.5701 17.0178 90.8055 16.885 90.9542Z" fill="white"/>
        <path d="M10.025 104.783C9.05904 104.548 8.20786 103.978 7.6235 103.174C7.03915 102.37 6.75967 101.384 6.83499 100.393C6.85091 100.192 7.16325 100.208 7.1473 100.409C7.07546 101.331 7.33588 102.25 7.88156 102.997C8.42724 103.745 9.22224 104.273 10.1231 104.486C10.3188 104.533 10.2196 104.829 10.025 104.783Z" fill="white"/>
        <path d="M11.3447 113.263C13.0894 112.221 14.3774 110.56 14.9518 108.611C15.0085 108.417 15.3053 108.516 15.2486 108.709C14.6471 110.736 13.3033 112.462 11.4853 113.542C11.312 113.645 11.1723 113.365 11.3447 113.263Z" fill="white"/>
        <path d="M13.0808 96.2056C13.4357 96.3743 13.8269 96.4521 14.2192 96.4322C14.6116 96.4123 14.9929 96.2952 15.3289 96.0915C15.5008 95.9865 15.6403 96.2664 15.4695 96.3707C15.0972 96.5941 14.676 96.7228 14.2425 96.7458C13.809 96.7688 13.3765 96.6852 12.9828 96.5025C12.9442 96.4884 12.9125 96.4601 12.894 96.4234C12.8756 96.3868 12.8718 96.3444 12.8834 96.3051C12.8965 96.2658 12.9247 96.2334 12.9616 96.2147C12.9986 96.1961 13.0414 96.1929 13.0808 96.2056Z" fill="white"/>
        <path d="M37.2804 103.393C37.1749 103.462 37.0693 103.53 36.9637 103.601C35.5499 104.531 34.2141 105.574 32.9692 106.72C32.8716 106.807 32.7739 106.897 32.679 106.986C29.7093 109.779 27.2839 113.099 25.5262 116.778C24.8281 118.242 24.2425 119.757 23.7743 121.311C23.1278 123.456 22.5975 125.833 21.3179 127.587C21.1864 127.772 21.0437 127.948 20.8904 128.115H9.32617C9.29988 128.102 9.27347 128.091 9.24706 128.078L8.78534 128.099C8.80389 128.017 8.82489 127.933 8.84344 127.851C8.854 127.804 8.86715 127.756 8.87771 127.709C8.88557 127.677 8.89356 127.645 8.89884 127.616C8.90141 127.606 8.90412 127.595 8.9067 127.587C8.91198 127.558 8.91997 127.532 8.92525 127.506C9.04132 127.033 9.16092 126.561 9.28404 126.089C9.28404 126.086 9.28404 126.086 9.28661 126.083C10.2339 122.487 11.4897 118.939 13.2443 115.693C13.2971 115.596 13.3498 115.495 13.4079 115.398C14.2068 113.939 15.1237 112.549 16.1492 111.24C16.7131 110.525 17.3128 109.839 17.946 109.184C19.5854 107.497 21.4801 106.077 23.5605 104.979C27.7082 102.789 32.5101 101.95 36.9427 103.287C37.0561 103.322 37.167 103.356 37.2804 103.393Z" fill="#CBCBCB"/>
        <path d="M37.2543 103.541C31.4958 104.684 26.244 107.614 22.2449 111.912C21.3938 112.838 20.611 113.852 20.0866 115.002C19.584 116.126 19.3918 117.365 19.53 118.59C19.6359 119.734 19.8768 120.892 19.7027 122.042C19.5193 123.254 18.7996 124.245 17.7912 124.919C16.5574 125.744 15.1009 126.076 13.6653 126.352C12.0713 126.657 10.4108 126.95 9.08039 127.945C8.9192 128.066 8.74143 127.809 8.90238 127.688C11.217 125.956 14.3187 126.32 16.8508 125.097C18.0323 124.526 19.049 123.596 19.3417 122.274C19.5977 121.118 19.3503 119.923 19.2331 118.766C19.11 117.55 19.1939 116.382 19.6466 115.237C20.1096 114.066 20.8545 113.02 21.6782 112.076C23.5621 109.95 25.7685 108.133 28.2168 106.692C31.0018 105.032 34.0503 103.861 37.2303 103.229C37.4272 103.19 37.4499 103.502 37.2543 103.541Z" fill="white"/>
        <path d="M23.4511 110.451C22.821 109.682 22.4847 108.714 22.5023 107.72C22.5199 106.726 22.8902 105.771 23.5471 105.025C23.6806 104.875 23.9207 105.075 23.7871 105.226C23.1741 105.919 22.8292 106.809 22.8147 107.735C22.8003 108.66 23.1171 109.56 23.7081 110.273C23.8363 110.428 23.5786 110.605 23.4511 110.451Z" fill="white"/>
        <path d="M19.3999 118.016C21.4201 118.235 23.4486 117.684 25.0808 116.474C25.2424 116.353 25.4202 116.611 25.2588 116.731C23.558 117.987 21.4459 118.556 19.344 118.324C19.1437 118.302 19.2006 117.994 19.3999 118.016Z" fill="white"/>
        <path d="M31.055 105.443C31.2368 105.791 31.5023 106.089 31.8276 106.309C32.1529 106.53 32.5278 106.666 32.9187 106.705C33.1192 106.725 33.062 107.033 32.8628 107.013C32.4312 106.967 32.0173 106.816 31.6574 106.574C31.2974 106.331 31.0024 106.004 30.798 105.621C30.7757 105.587 30.7674 105.545 30.7748 105.504C30.7821 105.464 30.8045 105.428 30.8375 105.403C30.8717 105.38 30.9137 105.371 30.9544 105.379C30.9951 105.386 31.0313 105.409 31.055 105.443Z" fill="white"/>
        <path d="M38.4086 101.933C39.4984 93.1692 44.9296 84.5345 53.2875 81.6826C49.9914 90.7028 49.9921 100.598 53.2895 109.618C54.5738 113.092 56.3639 116.822 55.1559 120.323C54.4042 122.502 52.5655 124.168 50.5101 125.211C48.4547 126.253 46.1735 126.749 43.9209 127.236L43.4776 127.603C39.9017 119.528 37.3187 110.696 38.4086 101.933Z" fill="#CBCBCB"/>
        <path d="M53.3705 81.8486C48.5529 87.2433 45.4275 94.2121 44.7249 101.421C44.573 102.98 44.5545 104.574 44.8952 106.111C45.2389 107.606 45.9765 108.981 47.0316 110.095C47.9945 111.153 49.1019 112.123 49.7909 113.397C50.5171 114.739 50.545 116.265 50.0479 117.691C49.4396 119.435 48.2407 120.857 47.0199 122.207C45.6645 123.706 44.233 125.241 43.6568 127.228C43.587 127.469 43.2175 127.347 43.2872 127.106C44.2896 123.649 47.6455 121.686 49.2459 118.572C49.9927 117.119 50.3062 115.432 49.6061 113.898C48.9939 112.557 47.8527 111.555 46.8685 110.493C45.8351 109.377 45.0427 108.152 44.6345 106.675C44.2169 105.163 44.1731 103.565 44.2844 102.009C44.5634 98.4835 45.3949 95.0234 46.7487 91.7559C48.273 88.0181 50.4255 84.5687 53.113 81.5567C53.2794 81.3704 53.5359 81.6635 53.3705 81.8486Z" fill="white"/>
        <path d="M44.8296 99.0656C43.6269 98.7736 42.5671 98.0636 41.8396 97.0623C41.112 96.0611 40.7641 94.8339 40.8578 93.5998C40.8777 93.3502 41.2665 93.3692 41.2467 93.6192C41.1572 94.7682 41.4815 95.9114 42.1609 96.8423C42.8403 97.7733 43.8301 98.4307 44.9516 98.696C45.1953 98.7539 45.0718 99.1232 44.8296 99.0656Z" fill="white"/>
        <path d="M46.4726 109.623C48.6448 108.326 50.2484 106.257 50.9635 103.831C51.0342 103.59 51.4037 103.712 51.3331 103.953C50.5842 106.477 48.9111 108.625 46.6476 109.97C46.4318 110.098 46.2579 109.75 46.4726 109.623Z" fill="white"/>
        <path d="M48.634 88.3867C49.0758 88.5967 49.5629 88.6936 50.0514 88.6688C50.54 88.644 51.0147 88.4983 51.4329 88.2447C51.647 88.114 51.8207 88.4624 51.608 88.5923C51.1446 88.8703 50.6201 89.0307 50.0804 89.0593C49.5407 89.0879 49.0022 88.9838 48.512 88.7563C48.464 88.7388 48.4245 88.7036 48.4015 88.6579C48.3785 88.6122 48.3738 88.5595 48.3882 88.5105C48.4046 88.4617 48.4396 88.4213 48.4857 88.3981C48.5317 88.3749 48.585 88.3708 48.634 88.3867Z" fill="white"/>
        <path d="M78.7633 97.3361C78.6319 97.4215 78.5005 97.5069 78.369 97.5956C76.6088 98.7531 74.9456 100.052 73.3957 101.478C73.2741 101.587 73.1526 101.699 73.0343 101.81C69.337 105.287 66.3174 109.421 64.1289 114.001C63.2598 115.824 62.5306 117.71 61.9477 119.644C61.1428 122.315 60.4826 125.274 58.8894 127.459C58.7257 127.689 58.548 127.908 58.3572 128.116H43.9593C43.9266 128.1 43.8937 128.086 43.8608 128.07L43.2859 128.096C43.309 127.994 43.3352 127.889 43.3583 127.787C43.3714 127.728 43.3878 127.669 43.401 127.61C43.4107 127.571 43.4207 127.531 43.4273 127.495C43.4305 127.482 43.4338 127.469 43.437 127.459C43.4436 127.423 43.4536 127.39 43.4601 127.357C43.6047 126.769 43.7536 126.181 43.9068 125.593C43.9068 125.59 43.9069 125.59 43.9101 125.587C45.0895 121.109 46.653 116.691 48.8375 112.65C48.9032 112.529 48.9688 112.404 49.0412 112.283C50.0359 110.467 51.1774 108.735 52.4543 107.106C53.1563 106.215 53.9029 105.361 54.6913 104.547C56.7324 102.445 59.0914 100.678 61.6816 99.3104C66.8456 96.5839 72.8241 95.5393 78.3429 97.2047C78.484 97.2474 78.6221 97.2901 78.7633 97.3361Z" fill="#CBCBCB"/>
        <path d="M78.7309 97.5183C71.6364 98.9251 64.9453 102.608 60.0437 107.941C58.984 109.094 58.0094 110.356 57.3565 111.788C56.7307 113.188 56.4915 114.731 56.6635 116.255C56.7954 117.679 57.0952 119.121 56.8786 120.553C56.6502 122.062 55.7541 123.296 54.4987 124.136C52.9626 125.162 51.1492 125.576 49.3617 125.919C47.3771 126.299 45.3097 126.663 43.6534 127.903C43.4527 128.053 43.2314 127.733 43.4318 127.583C46.3135 125.426 50.1753 125.879 53.3278 124.356C54.7989 123.646 56.0647 122.488 56.4291 120.842C56.7478 119.402 56.4398 117.915 56.2939 116.474C56.1406 114.961 56.245 113.506 56.8086 112.081C57.3851 110.623 58.3125 109.32 59.3381 108.145C61.6836 105.498 64.4307 103.236 67.4789 101.442C70.9464 99.3752 74.7418 97.917 78.7011 97.1302C78.9461 97.0816 78.9744 97.47 78.7309 97.5183Z" fill="white"/>
        <path d="M61.5454 106.124C60.7609 105.166 60.3423 103.961 60.3642 102.724C60.3861 101.486 60.8471 100.297 61.665 99.3682C61.8311 99.1808 62.1301 99.4302 61.9638 99.6178C61.2006 100.481 60.7712 101.589 60.7532 102.742C60.7351 103.894 61.1296 105.015 61.8654 105.902C62.0251 106.095 61.7042 106.315 61.5454 106.124Z" fill="white"/>
        <path d="M56.5015 115.542C59.0168 115.814 61.5423 115.128 63.5744 113.621C63.7757 113.471 63.9971 113.792 63.7961 113.941C61.6785 115.505 59.0489 116.214 56.432 115.924C56.1826 115.897 56.2535 115.514 56.5015 115.542Z" fill="white"/>
        <path d="M71.0126 99.8871C71.2389 100.321 71.5695 100.691 71.9744 100.966C72.3794 101.24 72.8462 101.409 73.3329 101.459C73.5825 101.483 73.5114 101.866 73.2634 101.842C72.7259 101.785 72.2106 101.597 71.7625 101.295C71.3144 100.993 70.947 100.586 70.6926 100.109C70.6649 100.066 70.6545 100.014 70.6636 99.9636C70.6728 99.9133 70.7007 99.8684 70.7418 99.838C70.7843 99.8088 70.8366 99.7977 70.8873 99.8069C70.938 99.8161 70.983 99.8449 71.0126 99.8871Z" fill="white"/>
        <path d="M117.592 17.6504C122.245 17.6504 126.017 13.8783 126.017 9.2251C126.017 4.57194 122.245 0.799805 117.592 0.799805C112.939 0.799805 109.167 4.57194 109.167 9.2251C109.167 13.8783 112.939 17.6504 117.592 17.6504Z" fill="#32CCCC"/>
        <path d="M28.5053 17.4416C27.4605 16.7041 26.3174 15.935 25.0389 15.9657C21.9445 16.0401 20.2762 20.5764 17.185 20.4168C15.2136 20.3151 13.905 18.3125 12.0695 17.5864C9.6798 16.6411 6.63875 18.4898 6.37805 21.0464L6.68494 20.7655C15.9741 23.0301 25.6137 23.4754 35.0721 22.0769C32.8832 20.5318 30.6942 18.9867 28.5053 17.4416Z" fill="#CBCBCB"/>
        <path d="M89.9503 30.9767C88.9483 30.2695 87.852 29.5319 86.6259 29.5614C83.6584 29.6328 82.0584 33.9831 79.0939 33.8301C77.2034 33.7325 75.9483 31.812 74.188 31.1156C71.8963 30.209 68.9799 31.9821 68.7299 34.4339L69.0242 34.1645C77.9326 36.3362 87.1772 36.7633 96.2479 35.4222C94.1487 33.9404 92.0495 32.4585 89.9503 30.9767Z" fill="#CBCBCB"/>
        <path d="M26.4964 86.1204C26.7287 86.0488 26.9425 85.9271 27.1227 85.764C27.3029 85.6008 27.4451 85.4001 27.5393 85.1761C27.6336 84.952 27.6775 84.71 27.6681 84.4671C27.6587 84.2242 27.5962 83.9864 27.4849 83.7703L32.6196 69.5236L29.0596 68.8906L25.1318 83.0937C24.7811 83.3047 24.5201 83.637 24.3981 84.0276C24.276 84.4182 24.3015 84.8401 24.4698 85.2131C24.638 85.5862 24.9372 85.8846 25.3107 86.0518C25.6842 86.219 26.1061 86.2434 26.4964 86.1204Z" fill="#9E616A"/>
        <path d="M33.7243 66.2601C33.603 65.9955 33.4272 65.7594 33.2084 65.5674C32.9896 65.3754 32.7327 65.2317 32.4545 65.1458C32.1763 65.0599 31.8832 65.0337 31.5942 65.0689C31.3052 65.1041 31.0269 65.1999 30.7775 65.3501C30.3835 65.5829 30.0801 65.9425 29.9169 66.37L28.0705 69.6388C28.0178 69.7322 27.9857 69.8358 27.9767 69.9427C27.9676 70.0496 27.9817 70.1571 28.018 70.2581C28.0543 70.359 28.1119 70.4509 28.1869 70.5275C28.2619 70.6042 28.3526 70.6637 28.4528 70.7021L28.5487 70.7393L29.2623 71.0132L31.7402 71.9651L31.9677 72.0533C32.0677 72.0917 32.1749 72.1081 32.2819 72.1013C32.3888 72.0946 32.4931 72.0648 32.5875 72.0142C32.682 71.9635 32.7644 71.8931 32.8292 71.8077C32.8939 71.7223 32.9395 71.6239 32.9629 71.5193L33.2554 70.2053L33.777 67.8682C33.8767 67.6104 33.9233 67.3351 33.9143 67.0588C33.9052 66.7825 33.8406 66.5109 33.7243 66.2601Z" fill="#32CCCC"/>
        <path d="M39.4915 74.3955H30.999V82.888H39.4915V74.3955Z" fill="#9E616A"/>
        <path d="M26.3218 125.152L27.9951 125.152L28.7911 118.698L26.3215 118.698L26.3218 125.152Z" fill="#9E616A"/>
        <path d="M30.9152 127.037L28.4002 125.301V124.168L28.1154 124.185H28.1138L26.3231 124.293H26.3216L25.7551 124.326L25.4316 128.2L25.4224 128.328H26.6095L26.6327 128.2L26.8214 127.208L27.3028 128.2L27.3647 128.328H30.5128C30.6582 128.329 30.8001 128.284 30.9183 128.2C31.0118 128.135 31.0881 128.049 31.1407 127.948C31.1932 127.848 31.2205 127.736 31.2202 127.623C31.2203 127.508 31.1926 127.394 31.1395 127.293C31.0864 127.191 31.0095 127.103 30.9152 127.037Z" fill="#2F2E41"/>
        <path d="M36.1075 124.09L37.7156 124.553L40.2645 118.57L37.8912 117.888L36.1075 124.09Z" fill="#9E616A"/>
        <path d="M40.0004 127.174L38.0626 124.809L38.3768 123.719L38.0982 123.658H38.0966L36.5443 123.309L36.3446 123.264L35.7921 123.141L34.3651 126.894L35.5042 127.224L36.0196 126.204L36.23 127.431L36.9482 127.637L38.903 128.2L39.2574 128.302C39.3591 128.331 39.4658 128.337 39.5699 128.319C39.6741 128.301 39.773 128.261 39.8595 128.2C39.9921 128.108 40.0888 127.973 40.1334 127.818C40.1649 127.708 40.1692 127.592 40.146 127.48C40.1229 127.367 40.0729 127.263 40.0004 127.174Z" fill="#2F2E41"/>
        <path d="M38.7313 58.4046C38.4183 58.979 37.9837 59.4782 37.4579 59.8674C36.9321 60.2567 36.3277 60.5265 35.6869 60.6581C35.6157 60.6735 35.5445 60.6859 35.4718 60.6968C34.4663 60.8539 33.4372 60.6662 32.5519 60.1642C31.6666 59.6622 30.9773 58.8753 30.5961 57.9317C30.2148 56.9881 30.1641 55.9433 30.4522 54.9672C30.7402 53.9911 31.3501 53.1412 32.1826 52.5558C33.015 51.9704 34.0211 51.6839 35.0371 51.7429C36.0531 51.802 37.0192 52.2031 37.7783 52.881C38.5373 53.5589 39.0446 54.4738 39.2177 55.4767C39.3907 56.4795 39.2193 57.5115 38.7313 58.4046Z" fill="#9E616A"/>
        <path d="M45.8718 108.508C46.0134 108.134 46.0657 107.733 46.0243 107.336C45.983 106.938 45.8492 106.556 45.6336 106.22L41.7788 86.2242L40.2623 78.6416H31.1631C31.1631 78.6416 25.4762 84.9352 26.6894 92.9727L26.3498 104.292C26.0277 105.068 25.9482 105.924 26.1218 106.747L26.2569 107.387L26.2048 107.483C25.9565 107.943 25.8232 108.456 25.8161 108.978C25.809 109.5 25.9284 110.016 26.1641 110.482L25.7795 123.303L28.5092 123.152L32.528 108.214L35.1819 94.7926L39.6557 105.181L39.8073 107.607L39.7337 109.746L36.2435 122.242L39.2007 123.379L45.8718 108.508Z" fill="#2F2E41"/>
        <path d="M38.807 66.7768L36.6727 64.6301L36.7779 64.0698C36.8302 63.7852 36.7883 63.4912 36.6584 63.2326C36.5285 62.9739 36.3178 62.7647 36.0582 62.6366L33.2801 61.2716C33.0909 61.1787 32.8824 61.1322 32.6717 61.136C32.461 61.1397 32.2542 61.1936 32.0685 61.2931C31.8827 61.3926 31.7233 61.5349 31.6035 61.7083C31.4837 61.8816 31.4069 62.081 31.3794 62.29L31.0606 64.7524C31.0328 64.805 30.9275 65.014 30.7773 65.3498C30.2639 66.5203 29.8653 67.7379 29.5871 68.9854C29.4375 69.654 29.329 70.3311 29.2622 71.013C29.0965 72.5337 29.2119 74.0719 29.6026 75.5509C29.7388 76.0369 29.8131 76.1685 29.8565 76.218C29.8231 76.4354 29.8014 76.6545 29.7915 76.8742L29.7868 76.9532L29.9401 76.9594L30.9987 77.0027L38.5547 77.3153L39.4911 77.354L39.7279 77.3633L40.2743 74.3685L40.4322 73.5033C40.5513 73.2603 42.5432 69.0303 38.807 66.7768Z" fill="#32CCCC"/>
        <path d="M46.1323 84.1566C46.2213 83.9304 46.2596 83.6874 46.2446 83.4448C46.2296 83.2022 46.1615 82.9659 46.0453 82.7524C45.929 82.5389 45.7674 82.3535 45.5717 82.2093C45.376 82.0651 45.1512 81.9655 44.9128 81.9176L36.9852 69.0146L34.269 71.4013L42.9157 83.334C42.8617 83.7397 42.9585 84.1511 43.1875 84.4902C43.4166 84.8293 43.7621 85.0726 44.1586 85.174C44.5551 85.2754 44.975 85.2278 45.3388 85.0403C45.7025 84.8528 45.9849 84.5383 46.1323 84.1566Z" fill="#9E616A"/>
        <path d="M38.7592 69.9924L36.4144 67.0764C36.1507 66.6272 35.7275 66.2937 35.2291 66.1423C34.7306 65.9908 34.1934 66.0326 33.7244 66.2592C33.6752 66.2821 33.6272 66.3074 33.5805 66.3351C33.1083 66.6115 32.7647 67.0636 32.6249 67.5926C32.4851 68.1217 32.5604 68.6845 32.8345 69.1581L33.2555 70.2044L34.2367 72.6405C34.2767 72.7399 34.3376 72.8295 34.4153 72.9032C34.493 72.9769 34.5857 73.033 34.687 73.0677C34.7884 73.1023 34.896 73.1148 35.0026 73.1041C35.1091 73.0934 35.2122 73.0599 35.3046 73.0058L35.3944 72.9532L38.3444 71.2259L38.5549 71.1021C38.6473 71.0482 38.7271 70.9749 38.7885 70.8873C38.85 70.7996 38.8917 70.6997 38.9109 70.5944C38.93 70.4891 38.9263 70.3808 38.9001 70.277C38.874 70.1732 38.8259 70.0761 38.7592 69.9924Z" fill="#32CCCC"/>
        <path d="M36.9389 52.2871C35.464 51.2727 34.1651 51.1181 33.0981 51.4058C32.9598 51.1919 32.7659 51.0197 32.5371 50.9077C31.705 48.8109 29.1726 47.5517 26.9993 48.1638C24.812 48.7799 23.3028 51.2028 23.7144 53.4376C23.9695 54.8229 24.8413 56.0224 25.1919 57.3866C25.8707 60.0275 24.2149 63.0526 21.6245 63.9039C24.0771 64.3963 26.7769 62.8982 27.6568 60.5564C28.0841 59.419 28.1099 58.1771 28.1642 56.9633C28.2185 55.7494 28.3164 54.4991 28.8664 53.4156C29.2352 52.6725 29.8476 52.0784 30.6015 51.7323C30.534 51.9411 30.5171 52.163 30.5523 52.3796C30.5874 52.5962 30.6736 52.8013 30.8036 52.9781C30.2284 53.6986 29.9153 54.4779 29.9153 54.9445C28.7204 57.1284 30.4291 59.0042 32.613 60.1991C33.4841 60.6781 34.4899 60.8535 35.4717 60.6974L35.563 60.3074L35.6868 60.6587L36.1001 61.8366C36.5768 62.0672 37.0493 62.32 37.5178 62.595C37.3398 61.7592 37.1959 60.925 37.0968 60.1093C36.9596 58.9991 37.4378 57.3464 37.7827 56.3413C37.9965 55.7219 38.1063 55.0713 38.1075 54.416V54.3873L38.4433 55.4661L39.666 54.9445C39.4386 53.6398 39.666 52.1586 36.9389 52.2871Z" fill="#2F2E41"/>
        <path d="M91.9901 121.145L91.4416 121.269C91.812 122.473 92.0099 123.724 92.0293 124.983C92.0436 125.611 92.0077 126.239 91.922 126.861C91.8568 127.303 91.7351 127.809 91.2969 128.015C90.97 128.169 91.2548 128.653 91.5804 128.5C92.0747 128.268 92.3151 127.746 92.4229 127.237C92.5458 126.58 92.6025 125.913 92.592 125.244C92.5978 123.855 92.3949 122.473 91.9901 121.145Z" fill="#3F3D56"/>
        <path d="M91.6777 128.8C91.6777 128.8 89.6693 123.856 95.6943 120.148L91.6777 128.8Z" fill="#3F3D56"/>
        <path d="M92.3189 128.71C92.3189 128.71 91.7063 125.187 86.9644 125.217L92.3189 128.71Z" fill="#3F3D56"/>
        <path d="M91.9417 121.995C92.8723 121.995 93.6267 121.241 93.6267 120.31C93.6267 119.379 92.8723 118.625 91.9417 118.625C91.011 118.625 90.2566 119.379 90.2566 120.31C90.2566 121.241 91.011 121.995 91.9417 121.995Z" fill="#32CCCC"/>
        <path d="M124.377 128.799H3.18463C3.12562 128.799 3.06908 128.776 3.02741 128.734C2.98574 128.692 2.96234 128.635 2.96234 128.576C2.96234 128.517 2.98574 128.461 3.02741 128.419C3.06908 128.377 3.12562 128.354 3.18463 128.354H124.377C124.436 128.354 124.492 128.377 124.534 128.419C124.576 128.461 124.599 128.517 124.599 128.576C124.599 128.635 124.576 128.692 124.534 128.734C124.492 128.776 124.436 128.799 124.377 128.799Z" fill="#CACACA"/>
    </g>
    <defs>
        <clipPath id="clip0_355_23778">
            <rect width="123.056" height="128" fill="white" transform="translate(2.96155 0.799805)"/>
        </clipPath>
    </defs>
</svg>
