<svg width="128" height="129" viewBox="0 0 128 129" fill="none" xmlns="http://www.w3.org/2000/svg">
    <g clip-path="url(#clip0_355_23655)">
        <path d="M127.295 121.826C127.281 121.863 127.253 121.894 127.216 121.91C127.18 121.927 127.139 121.929 127.101 121.915L7.41979 77.3805C7.38244 77.3665 7.35217 77.3382 7.33562 77.302C7.31906 77.2657 7.31758 77.2243 7.33148 77.1869C7.34539 77.1496 7.37356 77.1192 7.4098 77.1026C7.44605 77.086 7.48741 77.0844 7.52482 77.0982L127.206 121.632C127.244 121.646 127.274 121.675 127.291 121.711C127.307 121.747 127.309 121.789 127.295 121.826Z" fill="#E6E6E6"/>
        <path d="M63.5415 37.1631H35.0232C32.7861 37.1656 30.6413 38.0554 29.0594 39.6373C27.4776 41.2192 26.5877 43.3639 26.5852 45.601V48.1788C26.5267 48.1627 26.4652 48.1604 26.4056 48.1721C26.3461 48.1838 26.29 48.2092 26.242 48.2463C26.1939 48.2834 26.1551 48.3312 26.1287 48.3858C26.1023 48.4405 26.0889 48.5005 26.0896 48.5612V50.5435C26.0889 50.6042 26.1023 50.6642 26.1287 50.7189C26.1551 50.7735 26.1939 50.8213 26.242 50.8584C26.29 50.8955 26.3461 50.9209 26.4056 50.9326C26.4652 50.9443 26.5267 50.942 26.5852 50.9259V53.9274C26.5267 53.9113 26.4652 53.909 26.4056 53.9207C26.3461 53.9324 26.29 53.9578 26.242 53.9949C26.1939 54.032 26.1551 54.0798 26.1287 54.1344C26.1023 54.1891 26.0889 54.2491 26.0896 54.3098V59.2655C26.0889 59.3262 26.1023 59.3863 26.1287 59.4409C26.1551 59.4956 26.1939 59.5433 26.242 59.5804C26.29 59.6175 26.3461 59.6429 26.4056 59.6547C26.4652 59.6664 26.5267 59.6641 26.5852 59.648V61.4601C26.5267 61.444 26.4652 61.4417 26.4056 61.4534C26.3461 61.4651 26.29 61.4905 26.242 61.5276C26.1939 61.5647 26.1551 61.6124 26.1287 61.6671C26.1023 61.7218 26.0889 61.7818 26.0896 61.8425V66.7982C26.0889 66.8589 26.1023 66.919 26.1287 66.9736C26.1551 67.0283 26.1939 67.076 26.242 67.1131C26.29 67.1502 26.3461 67.1756 26.4056 67.1873C26.4652 67.199 26.5267 67.1968 26.5852 67.1806V119.514C26.5877 121.751 27.4776 123.895 29.0594 125.477C30.6413 127.059 32.7861 127.949 35.0232 127.952H63.5415C65.7786 127.949 67.9234 127.059 69.5053 125.477C71.0871 123.895 71.9769 121.751 71.9795 119.514V45.601C71.9769 43.3639 71.0871 41.2192 69.5053 39.6373C67.9234 38.0554 65.7786 37.1656 63.5415 37.1631ZM70.1954 119.514C70.1934 121.278 69.4917 122.969 68.2443 124.216C66.9969 125.464 65.3056 126.166 63.5415 126.168H35.0232C33.2591 126.166 31.5678 125.464 30.3204 124.216C29.0729 122.969 28.3713 121.278 28.3693 119.514V45.601C28.3713 43.8369 29.0729 42.1456 30.3204 40.8982C31.5678 39.6508 33.2591 38.9491 35.0232 38.9471H63.5415C65.3056 38.9491 66.9969 39.6508 68.2443 40.8982C69.4917 42.1456 70.1934 43.8369 70.1954 45.601V119.514Z" fill="#3F3D56"/>
        <path d="M63.5415 127.159H35.0232C32.9963 127.156 31.0531 126.35 29.6199 124.917C28.1867 123.484 27.3805 121.541 27.3782 119.514V45.6011C27.3805 43.5742 28.1867 41.631 29.6199 40.1978C31.0531 38.7646 32.9963 37.9584 35.0232 37.9561H63.5415C65.5684 37.9584 67.5116 38.7645 68.9449 40.1978C70.3781 41.631 71.1843 43.5742 71.1866 45.6011V119.514C71.1843 121.541 70.3781 123.484 68.9449 124.917C67.5116 126.35 65.5684 127.156 63.5415 127.159Z" fill="#E6E6E6"/>
        <path d="M64.2463 125.969H34.3185C32.9515 125.968 31.6408 125.424 30.6742 124.457C29.7075 123.491 29.1638 122.18 29.1622 120.813V44.3018C29.1638 42.9347 29.7075 41.6241 30.6742 40.6575C31.6408 39.6908 32.9514 39.1471 34.3185 39.1455H38.2214C38.4474 39.1458 38.664 39.2356 38.8237 39.3954C38.9835 39.5552 39.0734 39.7718 39.0736 39.9978C39.0744 40.6652 39.3399 41.3052 39.8119 41.7772C40.2838 42.2492 40.9238 42.5146 41.5913 42.5154H56.577C57.2445 42.5146 57.8845 42.2492 58.3564 41.7772C58.8284 41.3052 59.0939 40.6652 59.0947 39.9978C59.0949 39.7718 59.1848 39.5552 59.3446 39.3954C59.5043 39.2356 59.721 39.1458 59.9469 39.1455H64.2463C65.6133 39.1471 66.9239 39.6908 67.8906 40.6574C68.8572 41.6241 69.401 42.9347 69.4025 44.3018V120.813C69.401 122.18 68.8572 123.491 67.8906 124.457C66.9239 125.424 65.6133 125.968 64.2463 125.969Z" fill="white"/>
        <path d="M50.5708 40.8798H47.0027C46.8976 40.8798 46.7967 40.8381 46.7224 40.7637C46.648 40.6894 46.6063 40.5885 46.6063 40.4834C46.6063 40.3782 46.648 40.2774 46.7224 40.203C46.7967 40.1287 46.8976 40.0869 47.0027 40.0869H50.5708C50.676 40.0869 50.7768 40.1287 50.8512 40.203C50.9255 40.2774 50.9673 40.3782 50.9673 40.4834C50.9673 40.5885 50.9255 40.6894 50.8512 40.7637C50.7768 40.8381 50.676 40.8798 50.5708 40.8798Z" fill="white"/>
        <path d="M53.0487 40.7802C53.1582 40.7802 53.2469 40.6915 53.2469 40.582C53.2469 40.4725 53.1582 40.3838 53.0487 40.3838C52.9392 40.3838 52.8504 40.4725 52.8504 40.582C52.8504 40.6915 52.9392 40.7802 53.0487 40.7802Z" fill="white"/>
        <path d="M70.3666 54.6309H28.1587V55.0826H70.3666V54.6309Z" fill="#E6E6E6"/>
        <path d="M70.3666 63.667H28.1587V64.1188H70.3666V63.667Z" fill="#E6E6E6"/>
        <path d="M70.3666 82.3398H28.1587V82.7916H70.3666V82.3398Z" fill="#E6E6E6"/>
        <path d="M70.3666 101.013H28.1587V101.464H70.3666V101.013Z" fill="#E6E6E6"/>
        <path d="M70.3666 115.619H28.1587V116.071H70.3666V115.619Z" fill="#E6E6E6"/>
        <path d="M58.8111 54.8574H58.3593V82.5657H58.8111V54.8574Z" fill="#E6E6E6"/>
        <path d="M37.6813 82.5576H37.2295V115.846H37.6813V82.5576Z" fill="#E6E6E6"/>
        <path d="M69.4025 91.6885H37.4554V92.1402H69.4025V91.6885Z" fill="#E6E6E6"/>
        <path d="M58.8597 115.846H58.4079V125.97H58.8597V115.846Z" fill="#E6E6E6"/>
        <path d="M58.5099 73.1885H29.0869V73.6402H58.5099V73.1885Z" fill="#E6E6E6"/>
        <path d="M35.2316 38.8598L34.8148 39.0342L41.473 54.9442L41.8898 54.7698L35.2316 38.8598Z" fill="#E6E6E6"/>
        <path d="M55.7377 42.5156H55.2859V54.8576H55.7377V42.5156Z" fill="#E6E6E6"/>
        <path d="M67.3869 61.7085C67.3869 65.7564 61.1285 75.1886 59.2996 77.8586C59.2444 77.9393 59.1704 78.0054 59.0839 78.051C58.9974 78.0966 58.9011 78.1205 58.8034 78.1205C58.7056 78.1205 58.6093 78.0966 58.5228 78.051C58.4363 78.0054 58.3623 77.9393 58.3071 77.8586C56.4782 75.1886 50.2198 65.7564 50.2198 61.7085C50.2198 59.432 51.1242 57.2488 52.7339 55.6391C54.3436 54.0293 56.5269 53.125 58.8034 53.125C61.0799 53.125 63.2631 54.0293 64.8728 55.6391C66.4825 57.2488 67.3869 59.432 67.3869 61.7085Z" fill="#32CCCC"/>
        <path d="M58.8034 65.4734C61.2152 65.4734 63.1704 63.5182 63.1704 61.1063C63.1704 58.6945 61.2152 56.7393 58.8034 56.7393C56.3915 56.7393 54.4363 58.6945 54.4363 61.1063C54.4363 63.5182 56.3915 65.4734 58.8034 65.4734Z" fill="white"/>
        <path d="M58.5173 82.6953L41.9788 115.739L42.3828 115.941L58.9213 82.8975L58.5173 82.6953Z" fill="#E6E6E6"/>
        <path d="M82.6196 76.5521C82.8829 76.6937 83.1741 76.7758 83.4726 76.7926C83.7711 76.8095 84.0697 76.7607 84.3474 76.6497C84.625 76.5387 84.8749 76.3681 85.0794 76.1501C85.284 75.932 85.4383 75.6718 85.5314 75.3877L92.7983 75.262L90.6649 72.1455L84.0912 72.7426C83.6036 72.6178 83.087 72.6762 82.6396 72.9068C82.1921 73.1374 81.8447 73.5241 81.6633 73.9937C81.4819 74.4633 81.4791 74.9831 81.6553 75.4546C81.8316 75.9261 82.1746 76.3166 82.6196 76.5521Z" fill="#FFB8B8"/>
        <path d="M86.9817 76.4611C86.8691 76.4611 86.7576 76.4383 86.6541 76.394C86.5505 76.3498 86.457 76.2851 86.3791 76.2037C86.3012 76.1223 86.2406 76.026 86.201 75.9206C86.1613 75.8152 86.1434 75.7029 86.1484 75.5904L86.2951 72.2581C86.3031 72.0597 86.382 71.8707 86.5174 71.7255C86.6528 71.5802 86.8358 71.4883 87.0332 71.4665L95.4515 70.501L95.1694 76.0537L87.0229 76.4599C87.0092 76.4607 86.9954 76.4611 86.9817 76.4611Z" fill="#32CCCC"/>
        <path d="M97.2346 122.135L94.8644 122.909L90.7505 114.135L94.2487 112.992L97.2346 122.135Z" fill="#FFB8B8"/>
        <path d="M98.5899 124.235L90.9473 126.731L90.9157 126.634C90.7881 126.243 90.7387 125.831 90.7703 125.422C90.8019 125.012 90.9139 124.612 91.0999 124.246C91.2859 123.88 91.5423 123.553 91.8544 123.286C92.1664 123.019 92.5281 122.815 92.9188 122.688L97.5868 121.163L98.5899 124.235Z" fill="#2F2E41"/>
        <path d="M104.216 125.803L101.723 125.803L100.537 116.186L104.217 116.186L104.216 125.803Z" fill="#FFB8B8"/>
        <path d="M104.852 128.222L96.812 128.221V128.12C96.812 127.709 96.8929 127.302 97.0502 126.922C97.2075 126.542 97.438 126.197 97.7286 125.907C98.0192 125.616 98.3641 125.386 98.7438 125.228C99.1235 125.071 99.5304 124.99 99.9414 124.99H99.9416L104.852 124.99L104.852 128.222Z" fill="#2F2E41"/>
        <path d="M100.429 123.463C100.225 123.462 100.029 123.387 99.8762 123.252C99.7238 123.117 99.6262 122.93 99.6018 122.728L96.387 95.8515L91.6811 103.406L97.2026 117.516C97.2777 117.711 97.2773 117.927 97.2015 118.122C97.1257 118.317 96.9799 118.476 96.7927 118.569L92.1088 120.861C92.0019 120.913 91.885 120.942 91.766 120.946C91.6471 120.949 91.5287 120.927 91.419 120.881C91.3093 120.835 91.2108 120.765 91.13 120.678C91.0492 120.591 90.988 120.487 90.9506 120.374L85.7599 104.691C85.3688 103.511 85.3177 102.245 85.6124 101.037L88.9688 87.2633L89.0081 87.2418L96.5738 83.0977L96.6171 83.1135L105.527 86.3655L104.594 104.023L105.272 122.349C105.281 122.567 105.204 122.78 105.058 122.941C104.912 123.103 104.708 123.2 104.49 123.213L100.481 123.461C100.464 123.462 100.447 123.463 100.429 123.463Z" fill="#2F2E41"/>
        <path d="M95.5207 92.4972C94.1895 92.4972 93.068 92.118 92.3663 91.1541L92.3437 91.1231L92.7977 86.3587L88.7595 88.6003C88.6758 88.6467 88.5798 88.6664 88.4846 88.6566C88.3893 88.6468 88.2994 88.6079 88.2269 88.5454C88.1544 88.4828 88.1028 88.3995 88.0792 88.3067C88.0556 88.2139 88.061 88.1161 88.0947 88.0265L93.1309 74.6522L96.4562 63.7574C96.621 62.8854 97.0469 62.0841 97.6773 61.4595C98.3078 60.835 99.1131 60.4166 99.9865 60.2599C102.949 59.7158 104.713 60.7154 106.75 62.9334C107.243 63.4731 107.606 64.1182 107.811 64.8196C108.017 65.5209 108.059 66.2598 107.935 66.9801L106.008 77.9955L106.574 87.8719C106.618 88.0422 106.606 88.2218 106.541 88.385C106.476 88.5483 106.361 88.6868 106.213 88.7808C104.638 89.7834 99.8077 92.4968 95.5207 92.4972Z" fill="#32CCCC"/>
        <path d="M102.26 58.6108C105.019 58.6108 107.256 56.3743 107.256 53.6154C107.256 50.8566 105.019 48.6201 102.26 48.6201C99.5014 48.6201 97.2649 50.8566 97.2649 53.6154C97.2649 56.3743 99.5014 58.6108 102.26 58.6108Z" fill="#FFB8B8"/>
        <path d="M103.562 89.2221C103.834 89.0975 104.075 88.9148 104.268 88.6869C104.462 88.4591 104.603 88.1915 104.682 87.9031C104.761 87.6147 104.776 87.3126 104.725 87.0179C104.675 86.7232 104.56 86.4431 104.39 86.1974L108.674 80.3264L104.902 80.1475L101.412 85.7501C101.018 86.0637 100.753 86.5109 100.667 87.0069C100.581 87.5028 100.68 88.0132 100.945 88.4411C101.21 88.8691 101.622 89.185 102.105 89.3289C102.587 89.4729 103.106 89.4349 103.562 89.2221Z" fill="#FFB8B8"/>
        <path d="M105.881 85.911C105.672 85.9407 105.46 85.8902 105.287 85.7694L102.45 83.7917C102.28 83.6737 102.16 83.4962 102.113 83.294C102.067 83.0919 102.098 82.8798 102.2 82.6994L107.25 73.7157L102.171 67.6028C101.905 67.2817 101.708 66.9087 101.593 66.5074C101.478 66.1062 101.449 65.6854 101.505 65.272C101.562 64.8585 101.704 64.4615 101.923 64.106C102.142 63.7506 102.432 63.4445 102.776 63.2074C103.119 62.9702 103.508 62.8072 103.918 62.7286C104.328 62.65 104.749 62.6576 105.156 62.7509C105.563 62.8442 105.946 63.0212 106.281 63.2705C106.615 63.5199 106.894 63.8362 107.1 64.1993L112.707 74.0962C112.747 74.1667 112.768 74.2462 112.768 74.3271C112.768 74.4079 112.747 74.4874 112.707 74.5579L106.488 85.4975C106.431 85.5983 106.353 85.686 106.26 85.7551C106.167 85.8242 106.06 85.8731 105.947 85.8988C105.925 85.9039 105.903 85.9079 105.881 85.911Z" fill="#32CCCC"/>
        <path d="M100.264 52.978C99.7694 52.609 99.085 52.6666 98.4992 52.4732C98.1504 52.358 97.838 52.1531 97.5934 51.8792C97.3488 51.6052 97.1805 51.2717 97.1054 50.9121C97.0303 50.5526 97.051 50.1796 97.1656 49.8306C97.2801 49.4816 97.4844 49.1689 97.7579 48.9237C98.3906 48.3568 99.2908 48.2281 100.134 48.1244C101.289 47.9823 102.455 47.84 103.614 47.953C104.772 48.066 105.938 48.4572 106.785 49.2558C107.718 50.1362 108.178 51.4469 108.181 52.7301C108.149 54.0194 107.795 55.2801 107.152 56.3979C106.953 56.8226 106.653 57.1923 106.279 57.4746C105.889 57.7318 105.34 57.7991 104.965 57.5214C104.64 57.2813 104.522 56.8608 104.375 56.4848C104.229 56.1088 103.979 55.7084 103.579 55.6504C103.065 55.5757 102.673 56.0986 102.182 56.2697C101.496 56.509 100.733 55.9797 100.453 55.3089C100.173 54.6382 100.247 53.8793 100.326 53.1567" fill="#2F2E41"/>
        <path d="M128 128.118C128 128.158 127.984 128.197 127.956 128.225C127.928 128.253 127.889 128.269 127.85 128.269H0.150733C0.110795 128.269 0.0724919 128.253 0.0442511 128.225C0.0160103 128.197 0.000144958 128.158 0.000144958 128.118C0.000144958 128.078 0.0160103 128.04 0.0442511 128.012C0.0724919 127.984 0.110795 127.968 0.150733 127.968H127.85C127.889 127.968 127.928 127.984 127.956 128.012C127.984 128.04 128 128.078 128 128.118Z" fill="#CCCCCC"/>
        <path d="M58.8034 84.4475C59.8845 84.4475 60.761 83.5711 60.761 82.4899C60.761 81.4087 59.8845 80.5322 58.8034 80.5322C57.7222 80.5322 56.8457 81.4087 56.8457 82.4899C56.8457 83.5711 57.7222 84.4475 58.8034 84.4475Z" fill="#32CCCC"/>
        <path d="M86.364 61.0853C85.5464 62.1749 81.9566 63.4499 80.925 63.7992C80.8938 63.8098 80.8605 63.8126 80.828 63.8074C80.7955 63.8023 80.7648 63.7892 80.7385 63.7695C80.7122 63.7497 80.6911 63.7239 80.677 63.6941C80.6629 63.6644 80.6563 63.6316 80.6578 63.5988C80.7048 62.5106 80.9252 58.7075 81.7428 57.6179C82.2026 57.0051 82.887 56.6 83.6455 56.4918C84.4039 56.3837 85.1743 56.5812 85.7871 57.041C86.3999 57.5008 86.805 58.1852 86.9131 58.9437C87.0213 59.7021 86.8238 60.4725 86.364 61.0853Z" fill="#E6E6E6"/>
        <path d="M84.175 60.6591C84.9867 60.6591 85.6447 60.0011 85.6447 59.1894C85.6447 58.3777 84.9867 57.7197 84.175 57.7197C83.3634 57.7197 82.7054 58.3777 82.7054 59.1894C82.7054 60.0011 83.3634 60.6591 84.175 60.6591Z" fill="white"/>
        <path d="M79.856 65.6048C80.2198 65.6048 80.5148 65.3098 80.5148 64.9459C80.5148 64.5821 80.2198 64.2871 79.856 64.2871C79.4921 64.2871 79.1971 64.5821 79.1971 64.9459C79.1971 65.3098 79.4921 65.6048 79.856 65.6048Z" fill="#F2F2F2"/>
        <path d="M14.7091 90.974C15.9122 92.8121 15.8738 98.9552 15.8368 100.711C15.8358 100.764 15.8218 100.816 15.7961 100.863C15.7704 100.909 15.7337 100.949 15.6893 100.978C15.6449 101.007 15.5941 101.024 15.5413 101.029C15.4885 101.034 15.4352 101.026 15.3862 101.006C13.7621 100.337 8.11687 97.9144 6.91378 96.0763C6.5783 95.5644 6.34695 94.9915 6.23297 94.3902C6.11899 93.7889 6.12461 93.1711 6.2495 92.5719C6.3744 91.9728 6.61612 91.4042 6.96086 90.8985C7.3056 90.3929 7.74661 89.9601 8.25867 89.6249C8.77073 89.2898 9.34381 89.0588 9.94517 88.9452C10.5465 88.8316 11.1644 88.8376 11.7634 88.9629C12.3625 89.0882 12.9309 89.3303 13.4364 89.6753C13.9418 90.0204 14.3743 90.4617 14.7091 90.974Z" fill="#E6E6E6"/>
        <path d="M10.6325 95.6219C11.9414 95.6219 13.0025 94.5608 13.0025 93.2519C13.0025 91.9429 11.9414 90.8818 10.6325 90.8818C9.32353 90.8818 8.26243 91.9429 8.26243 93.2519C8.26243 94.5608 9.32353 95.6219 10.6325 95.6219Z" fill="white"/>
        <path d="M16.9879 104.024C17.5747 104.024 18.0504 103.549 18.0504 102.962C18.0504 102.375 17.5747 101.899 16.9879 101.899C16.4012 101.899 15.9255 102.375 15.9255 102.962C15.9255 103.549 16.4012 104.024 16.9879 104.024Z" fill="#F2F2F2"/>
    </g>
    <defs>
        <clipPath id="clip0_355_23655">
            <rect width="128" height="91.1059" fill="white" transform="translate(0 37.1631)"/>
        </clipPath>
    </defs>
</svg>
