<svg width="128" height="129" viewBox="0 0 128 129" fill="none" xmlns="http://www.w3.org/2000/svg">
    <path d="M16.3338 124.536H15.5315C15.4178 124.392 15.3085 124.245 15.2013 124.099C13.623 121.954 12.5471 119.482 12.0532 116.865C11.3803 113.2 11.9047 109.415 13.5486 106.071C14.0078 105.134 14.5484 104.238 15.1642 103.396C15.3828 103.441 15.5993 103.494 15.8135 103.559C14.1916 105.708 13.1008 108.209 12.6304 110.859C12.2386 113.178 12.3341 115.552 12.9107 117.832C13.4874 120.111 14.5325 122.246 15.9796 124.099C16.0956 124.248 16.2136 124.394 16.3338 124.536Z" fill="white"/>
    <path d="M87.5866 124.316C87.5867 124.341 87.582 124.364 87.5728 124.387C87.5636 124.409 87.5501 124.429 87.533 124.446C87.5159 124.464 87.4957 124.477 87.4734 124.486C87.451 124.495 87.4271 124.5 87.403 124.5H0.18362C0.134921 124.5 0.0882162 124.481 0.0537808 124.446C0.0193455 124.412 0 124.365 0 124.316C0 124.268 0.0193455 124.221 0.0537808 124.187C0.0882162 124.152 0.134921 124.133 0.18362 124.133H87.403C87.4271 124.133 87.451 124.137 87.4734 124.147C87.4957 124.156 87.5159 124.169 87.533 124.186C87.5501 124.203 87.5636 124.224 87.5728 124.246C87.582 124.268 87.5867 124.292 87.5866 124.316Z" fill="#3F3D56"/>
    <path d="M103.295 125.411C107.521 125.411 110.946 124.823 110.946 124.099C110.946 123.374 107.521 122.787 103.295 122.787C99.0688 122.787 95.643 123.374 95.643 124.099C95.643 124.823 99.0688 125.411 103.295 125.411Z" fill="#32CCCC"/>
    <path d="M97.6072 67.1927C97.6076 64.8109 98.4243 62.5012 99.9213 60.6487C101.418 58.7961 103.505 57.5126 105.833 57.0121C104.315 56.6862 102.743 56.7041 101.233 57.0644C99.7223 57.4247 98.3116 58.1182 97.1038 59.0943C95.8961 60.0703 94.9219 61.3042 94.2527 62.7054C93.5835 64.1066 93.2362 65.6398 93.2362 67.1927C93.2362 68.7455 93.5835 70.2787 94.2527 71.6799C94.9219 73.0812 95.8961 74.315 97.1038 75.291C98.3116 76.2671 99.7223 76.9607 101.233 77.3209C102.743 77.6812 104.315 77.6991 105.833 77.3733C103.505 76.8728 101.418 75.5892 99.9213 73.7367C98.4243 71.8841 97.6076 69.5744 97.6072 67.1927Z" fill="#32CCCC"/>
    <path d="M86.2752 67.1927C86.2756 61.5121 88.3533 56.0276 92.1168 51.7725C95.8803 47.5174 101.07 44.7853 106.708 44.091C103.436 43.6899 100.117 43.988 96.9691 44.9656C93.8213 45.9432 90.917 47.5779 88.4482 49.7617C85.9794 51.9455 84.0023 54.6286 82.6479 57.6335C81.2934 60.6384 80.5923 63.8967 80.5911 67.1927C80.5911 77.6331 95.945 107.075 101.712 117.764C101.921 118.153 102.232 118.478 102.611 118.705C102.991 118.931 103.424 119.051 103.866 119.051C104.308 119.051 104.741 118.931 105.12 118.705C105.5 118.478 105.81 118.153 106.02 117.764C106.236 117.364 106.467 116.935 106.708 116.484C100.5 104.894 86.2752 77.2424 86.2752 67.1927Z" fill="#32CCCC"/>
    <path d="M103.886 119.312C103.404 119.316 102.93 119.187 102.516 118.94C102.102 118.693 101.764 118.337 101.539 117.911C95.181 106.125 80.3925 77.5929 80.3925 67.2356C80.3925 61.0048 82.8677 55.0291 87.2736 50.6233C91.6795 46.2174 97.6551 43.7422 103.886 43.7422C110.117 43.7422 116.092 46.2174 120.498 50.6233C124.904 55.0291 127.379 61.0048 127.379 67.2356C127.379 77.5939 112.591 106.125 106.232 117.911C106.007 118.337 105.669 118.693 105.255 118.94C104.842 119.188 104.368 119.316 103.886 119.312ZM103.886 44.1794C97.7732 44.1863 91.9128 46.6177 87.5904 50.9401C83.268 55.2624 80.8367 61.1229 80.8298 67.2356C80.8298 77.4933 95.5818 105.946 101.924 117.703C102.115 118.057 102.398 118.353 102.743 118.56C103.089 118.766 103.484 118.875 103.886 118.875C104.288 118.875 104.683 118.766 105.028 118.56C105.374 118.353 105.657 118.057 105.848 117.703C112.19 105.947 126.942 77.4943 126.942 67.2356C126.935 61.1229 124.504 55.2624 120.182 50.9401C115.859 46.6177 109.999 44.1863 103.886 44.1794Z" fill="#3F3D56"/>
    <path d="M103.886 77.8666C101.783 77.8666 99.7279 77.2431 97.9796 76.075C96.2313 74.9069 94.8687 73.2465 94.064 71.304C93.2594 69.3614 93.0488 67.2238 93.459 65.1616C93.8692 63.0994 94.8817 61.2051 96.3685 59.7183C97.8553 58.2315 99.7495 57.219 101.812 56.8088C103.874 56.3986 106.012 56.6091 107.954 57.4137C109.897 58.2184 111.557 59.581 112.725 61.3293C113.893 63.0775 114.517 65.133 114.517 67.2356C114.514 70.0541 113.393 72.7563 111.4 74.7493C109.407 76.7423 106.704 77.8634 103.886 77.8666ZM103.886 57.0417C101.87 57.0417 99.8989 57.6395 98.2225 58.7596C96.5462 59.8797 95.2396 61.4718 94.468 63.3344C93.6964 65.1971 93.4945 67.2467 93.8879 69.2241C94.2812 71.2015 95.252 73.0179 96.6776 74.4436C98.1032 75.8692 99.9196 76.8401 101.897 77.2334C103.874 77.6268 105.924 77.4249 107.787 76.6534C109.649 75.8819 111.241 74.5753 112.362 72.899C113.482 71.2226 114.08 69.2517 114.08 67.2356C114.077 64.533 113.002 61.9419 111.091 60.0309C109.18 58.1198 106.589 57.0448 103.886 57.0417Z" fill="#3F3D56"/>
    <path d="M11.9753 114.38L13.2407 114.776L21.7322 87.641C21.385 87.5526 21.0171 87.6005 20.7041 87.775C20.3911 87.9494 20.1568 88.2371 20.0494 88.5789L11.9753 114.38Z" fill="#3F3D56"/>
    <path d="M57.3496 84.4618C57.4349 84.1292 57.4463 83.782 57.383 83.4445C57.3196 83.1071 57.1831 82.7876 56.9829 82.5087C56.7827 82.2297 56.5238 81.998 56.2244 81.8299C55.925 81.6619 55.5924 81.5615 55.25 81.5358L41.8889 64.8311L38.5829 67.9125L52.6974 83.8694C52.6925 84.4474 52.8998 85.0072 53.28 85.4426C53.6602 85.8781 54.187 86.1589 54.7604 86.2319C55.3338 86.3049 55.9141 86.1651 56.3913 85.8388C56.8685 85.5126 57.2095 85.0226 57.3496 84.4618Z" fill="#FFB8B8"/>
    <path d="M44.452 67.4851L40.2295 70.7188C40.1093 70.8108 39.9708 70.8758 39.8232 70.9095C39.6757 70.9431 39.5226 70.9445 39.3745 70.9137C39.2263 70.8828 39.0866 70.8204 38.9647 70.7306C38.8429 70.6409 38.7418 70.526 38.6684 70.3936L36.0962 65.7569C35.6289 65.1395 35.4256 64.362 35.5307 63.595C35.6358 62.8279 36.0408 62.1338 36.6568 61.6649C37.2729 61.1959 38.0498 60.9904 38.8171 61.0934C39.5845 61.1963 40.2797 61.5994 40.7504 62.2141L44.545 65.8932C44.6536 65.9985 44.7383 66.1261 44.7931 66.2671C44.848 66.4081 44.8719 66.5593 44.863 66.7104C44.8542 66.8615 44.8129 67.0089 44.742 67.1425C44.6711 67.2762 44.5722 67.393 44.452 67.4851Z" fill="#CCCCCC"/>
    <path d="M37.3606 57.4012C40.3262 57.4012 42.7302 54.9972 42.7302 52.0317C42.7302 49.0661 40.3262 46.6621 37.3606 46.6621C34.3951 46.6621 31.9911 49.0661 31.9911 52.0317C31.9911 54.9972 34.3951 57.4012 37.3606 57.4012Z" fill="#FFB8B8"/>
    <path d="M48.8225 121.682H51.5028L51.2475 116.666L47.2917 116.666L48.8225 121.682Z" fill="#FFB8B8"/>
    <path d="M48.1389 120.808L53.4173 120.808H53.4175C53.8592 120.808 54.2966 120.895 54.7048 121.064C55.1129 121.233 55.4837 121.48 55.7961 121.793C56.1084 122.105 56.3562 122.476 56.5252 122.884C56.6943 123.292 56.7813 123.73 56.7813 124.171V124.281L48.1391 124.281L48.1389 120.808Z" fill="#2F2E41"/>
    <path d="M20.246 117.887L22.5262 119.295L24.9457 114.893L22.1862 113.167L20.246 117.887Z" fill="#FFB8B8"/>
    <path d="M20.1243 116.783L24.615 119.557C24.9908 119.789 25.3174 120.093 25.5758 120.452C25.8342 120.81 26.0194 121.216 26.121 121.646C26.2226 122.075 26.2385 122.521 26.1678 122.957C26.0971 123.393 25.9413 123.811 25.7091 124.187L25.6517 124.28L18.2991 119.738L20.1243 116.783Z" fill="#2F2E41"/>
    <path d="M48.6289 120.212C48.4296 120.212 48.2351 120.151 48.0712 120.038C47.9073 119.924 47.7817 119.764 47.7112 119.577L38.0162 96.3978C37.9953 96.3412 37.9592 96.2915 37.9119 96.254C37.8646 96.2166 37.8079 96.1929 37.748 96.1856C37.6881 96.1783 37.6273 96.1877 37.5724 96.2127C37.5175 96.2377 37.4705 96.2774 37.4367 96.3274L24.1177 117.309C23.9874 117.504 23.7913 117.646 23.565 117.709C23.3388 117.772 23.0975 117.752 22.885 117.652L21.0625 116.801C20.8291 116.691 20.648 116.494 20.558 116.252C20.468 116.01 20.4762 115.743 20.5809 115.507L31.4928 91.1836C31.2546 90.604 28.9306 84.6521 32.5013 81.7116L32.5263 81.696L42.2089 77.377L42.453 84.8045L52.1039 118.29C52.1402 118.416 52.151 118.548 52.1356 118.678C52.1202 118.808 52.0789 118.934 52.0141 119.048C51.9494 119.162 51.8625 119.262 51.7585 119.342C51.6546 119.422 51.5357 119.48 51.4089 119.514L48.881 120.179C48.7987 120.201 48.714 120.212 48.6289 120.212Z" fill="#2F2E41"/>
    <path d="M42.3553 66.5115C41.9866 65.0317 41.464 63.5402 40.7636 62.8516C40.5061 62.6006 40.2641 62.334 40.0389 62.0536C39.5679 61.4601 38.9752 60.9745 38.3007 60.6292C38.5475 60.4919 38.6922 60.3281 38.6922 60.1518C38.6922 59.6689 37.6155 59.2773 36.2873 59.2773C34.9592 59.2773 33.8825 59.6689 33.8825 60.1518C33.8858 60.2079 33.9001 60.2628 33.9246 60.3134C33.9491 60.3639 33.9834 60.4091 34.0254 60.4464C33.1581 60.8 32.4045 61.3847 31.8466 62.137C31.2888 62.8893 30.948 63.7803 30.8616 64.7128C30.551 68.0393 30.4603 72.2914 31.5488 74.981C32.4618 77.2052 32.5344 79.6855 31.7531 81.9592C31.7001 82.1175 31.6936 82.2877 31.7344 82.4496C31.7752 82.6115 31.8616 82.7583 31.9832 82.8727C32.1049 82.987 32.2568 83.064 32.4209 83.0947C32.5851 83.1253 32.7545 83.1083 32.9093 83.0456L42.517 79.1739C42.6787 79.1087 42.8173 78.9967 42.9149 78.8522C43.0124 78.7076 43.0646 78.5372 43.0646 78.3628V72.4825C43.0723 70.4707 42.8341 68.4655 42.3553 66.5115Z" fill="#CCCCCC"/>
    <path d="M23.9725 90.7304C24.307 90.6527 24.6203 90.5027 24.8905 90.2908C25.1607 90.0789 25.3811 89.8104 25.5363 89.5041C25.6915 89.1978 25.7776 88.8613 25.7886 88.5181C25.7996 88.1749 25.7353 87.8335 25.6001 87.5179L33.1173 67.6942L29.3052 66.71L22.3522 86.3295C21.837 86.5918 21.436 87.0339 21.225 87.5721C21.0141 88.1103 21.0079 88.7072 21.2076 89.2497C21.4074 89.7921 21.7991 90.2425 22.3087 90.5154C22.8183 90.7883 23.4103 90.8648 23.9725 90.7304Z" fill="#FFB8B8"/>
    <path d="M33.0861 71.4562L28.2691 69.2014C28.132 69.1372 28.0104 69.0443 27.9125 68.9289C27.8146 68.8135 27.7427 68.6784 27.7018 68.5327C27.6608 68.387 27.6517 68.2342 27.6752 68.0847C27.6986 67.9352 27.7539 67.7925 27.8375 67.6663L30.7649 63.2452C31.0974 62.5464 31.6934 62.0078 32.4223 61.7475C33.1511 61.4872 33.9534 61.5265 34.6534 61.8566C35.3534 62.1868 35.894 62.7809 36.1567 63.5089C36.4194 64.2369 36.3829 65.0393 36.0551 65.7404L34.5413 70.8043C34.498 70.9493 34.4238 71.0832 34.324 71.197C34.2242 71.3107 34.1011 71.4016 33.963 71.4635C33.8249 71.5253 33.675 71.5567 33.5237 71.5554C33.3724 71.5542 33.2231 71.5203 33.0861 71.4562Z" fill="#CCCCCC"/>
    <path d="M42.2929 50.7093C42.5351 50.738 42.7804 50.6936 42.9973 50.582C43.3934 50.3228 43.3544 49.7336 43.2204 49.2796C42.8864 48.1913 42.2836 47.2046 41.4678 46.4107C40.6519 45.6168 39.6493 45.0412 38.5523 44.737C37.7878 44.5338 36.8206 44.5416 36.3833 45.2007C35.2843 44.4687 33.9594 44.1546 32.6487 44.3156C31.3381 44.4766 30.1286 45.1019 29.2394 46.0782C28.3426 47.0629 27.8286 48.3466 27.5622 49.6515C27.1034 51.8994 25.1385 56.5364 26.2269 58.5561C26.9512 59.9 30.2846 58.8529 31.6946 59.4382C33.1047 60.0236 34.8184 59.958 36.0709 59.085C37.3234 58.212 37.9812 56.4882 37.4443 55.059C37.2367 54.5063 36.8766 54.0263 36.5926 53.5087C36.3086 52.9911 36.0961 52.3927 36.2229 51.8161C36.4203 50.9181 40.6584 50.6756 42.2929 50.7093Z" fill="#2F2E41"/>
    <path d="M23.0091 90.4513C24.2599 90.4513 25.2739 89.4372 25.2739 88.1861C25.2739 86.9351 24.2599 85.9209 23.0091 85.9209C21.7583 85.9209 20.7443 86.9351 20.7443 88.1861C20.7443 89.4372 21.7583 90.4513 23.0091 90.4513Z" fill="#FFB6B6"/>
    <path d="M12.0005 101.576C11.2091 101.327 10.3634 101.305 9.56046 101.515C9.55858 101.516 9.55721 101.516 9.55539 101.517C8.93313 101.678 8.35304 101.972 7.85467 102.378C7.82572 102.402 7.79823 102.426 7.77065 102.449C7.13919 102.991 6.67299 103.699 6.42542 104.494L3.01098 115.404C2.75698 116.212 2.73962 117.076 2.96097 117.893C2.97435 117.939 2.98775 117.985 3.00119 118.03C3.16692 118.572 3.43367 119.077 3.78733 119.519C3.78954 119.521 3.79132 119.524 3.79257 119.527C4.34463 120.212 5.08811 120.718 5.92841 120.98L12.368 122.995L18.4401 103.591L12.0005 101.576Z" fill="#32CCCC"/>
    <path d="M22.1549 87.7744L13.8613 114.276C13.8352 114.36 13.8258 114.447 13.8335 114.534C13.8412 114.62 13.8659 114.705 13.9063 114.782C13.9467 114.859 14.0018 114.928 14.0687 114.984C14.1355 115.039 14.2127 115.082 14.2958 115.108C14.379 115.134 14.4664 115.143 14.5532 115.135C14.6399 115.127 14.7243 115.103 14.8015 115.062C14.8786 115.022 14.9471 114.967 15.0029 114.9C15.0587 114.833 15.1008 114.756 15.1267 114.672L23.0028 89.5044C23.1094 89.1623 23.0809 88.7923 22.9232 88.4706C22.7655 88.1488 22.4906 87.8997 22.1549 87.7744Z" fill="#3F3D56"/>
    <path d="M11.8113 124.446C12.467 124.446 12.9986 123.914 12.9986 123.259C12.9986 122.603 12.467 122.071 11.8113 122.071C11.1555 122.071 10.6239 122.603 10.6239 123.259C10.6239 123.914 11.1555 124.446 11.8113 124.446Z" fill="#3F3D56"/>
    <path d="M4.0783 122.025C4.73406 122.025 5.26566 121.494 5.26566 120.838C5.26566 120.182 4.73406 119.65 4.0783 119.65C3.42253 119.65 2.89093 120.182 2.89093 120.838C2.89093 121.494 3.42253 122.025 4.0783 122.025Z" fill="#3F3D56"/>
    <path d="M9.56077 101.513C8.331 105.368 5.10951 115.451 3.79288 119.525C3.79162 119.522 3.78985 119.519 3.78763 119.517C3.43397 119.075 3.16723 118.569 3.0015 118.028C2.98811 117.982 2.9747 117.936 2.96127 117.89C4.37295 113.463 6.73729 105.997 7.77096 102.447C7.79853 102.423 7.82603 102.399 7.85498 102.376C8.35335 101.97 8.93344 101.676 9.5557 101.514C9.55752 101.513 9.55889 101.514 9.56077 101.513Z" fill="#3F3D56"/>
</svg>
